<svg version="1.1" id="Layer_1" xmlns="http://www.w3.org/2000/svg" xmlns:xlink="http://www.w3.org/1999/xlink" x="0px" y="0px"
	 width="100%" viewBox="0 0 6036 6397" enable-background="new 0 0 6036 6397" xml:space="preserve">
<path fill="#000000" opacity="1.000000" stroke="none" 
	d="
M3492.000000,6404.000000 
	C2328.000244,6404.000000 1166.000366,6404.000000 4.000468,6404.000000 
	C4.000312,4270.667480 4.000312,2137.334473 4.000156,4.001327 
	C2015.999023,4.000884 4027.998047,4.000884 6039.998047,4.000442 
	C6039.998535,2137.332031 6039.998535,4270.664062 6039.999023,6403.998047 
	C5191.333496,6404.000000 4342.666504,6404.000000 3492.000000,6404.000000 
M5364.375000,193.014435 
	C5337.067383,189.348251 5309.709961,190.727127 5282.362305,192.343552 
	C5280.556152,192.450317 5278.827148,193.851440 5273.546387,195.340073 
	C5213.018066,201.494812 5156.555176,220.311005 5103.982422,250.654907 
	C5035.548828,290.152832 4981.562012,344.202179 4942.042480,412.729492 
	C4865.178223,546.011780 4788.147949,679.198303 4711.215820,812.441406 
	C4560.350098,1073.734741 4409.515625,1335.046021 4258.647461,1596.337891 
	C4094.788818,1880.127686 3930.903076,2163.901855 3767.036377,2447.686768 
	C3615.161621,2710.704590 3463.323975,2973.743408 3311.406250,3236.736328 
	C3274.757324,3300.181885 3253.866943,3368.224365 3251.029541,3441.581055 
	C3247.949951,3521.204834 3264.693359,3596.327148 3302.283691,3666.741943 
	C3341.584473,3740.361084 3397.802979,3797.670898 3469.494385,3839.856934 
	C3513.106689,3865.520020 3557.014648,3890.694580 3601.125488,3915.491943 
	C3655.322510,3945.959717 3713.838379,3962.656738 3778.722168,3969.568848 
	C3789.732910,3970.531006 3800.735840,3972.135742 3811.756836,3972.274414 
	C3822.742188,3972.412598 3834.004150,3973.179443 3847.927002,3968.111816 
	C3867.024658,3965.372559 3886.424805,3963.959229 3905.170410,3959.678223 
	C4024.525879,3932.419434 4118.051270,3867.648926 4183.549316,3763.981934 
	C4207.377441,3726.268066 4228.768066,3687.009033 4251.096680,3648.354492 
	C4388.069824,3411.235107 4525.010742,3174.096680 4661.927246,2936.944580 
	C4781.188477,2730.372070 4900.392090,2523.766357 5019.642578,2317.187744 
	C5143.885742,2101.961426 5268.145020,1886.744263 5392.416504,1671.534058 
	C5502.363770,1481.129150 5612.360840,1290.752930 5722.284180,1100.334839 
	C5758.258789,1038.016968 5794.991699,976.113831 5829.745117,913.120178 
	C5882.013672,818.378235 5897.401367,717.014038 5874.638672,611.419373 
	C5848.203613,488.788971 5780.666992,393.610046 5673.675293,327.598236 
	C5630.610840,301.028412 5586.211426,276.616913 5542.320801,251.393753 
	C5487.888672,220.112320 5429.497559,200.938324 5364.375000,193.014435 
M184.171417,758.153748 
	C184.456039,758.941711 184.740646,759.729675 185.500488,763.533081 
	C194.710510,820.558044 213.228470,874.381714 239.251373,925.961487 
	C267.445587,981.844910 294.306580,1038.401245 321.726288,1094.675171 
	C364.897552,1183.276611 408.013245,1271.905151 451.221771,1360.488403 
	C487.135620,1434.116577 523.208496,1507.667480 559.103149,1581.305054 
	C602.292114,1669.906860 645.318909,1758.587891 688.506592,1847.190308 
	C724.688782,1921.420776 761.029907,1995.573975 797.249023,2069.786377 
	C841.935364,2161.348633 886.566772,2252.937500 931.224121,2344.513672 
	C959.831970,2403.177979 988.450195,2461.836914 1017.052551,2520.503662 
	C1060.249146,2609.105469 1103.410156,2697.724609 1146.634888,2786.312500 
	C1182.556030,2859.932373 1218.592651,2933.496094 1254.495117,3007.125000 
	C1297.398926,3095.112305 1340.189941,3183.154053 1383.076294,3271.149902 
	C1412.835693,3332.211426 1442.690430,3393.226074 1472.472534,3454.276367 
	C1517.148682,3545.857666 1561.783081,3637.459229 1606.465332,3729.037109 
	C1634.794678,3787.099365 1663.214966,3845.117432 1691.529907,3903.186523 
	C1735.311279,3992.974609 1779.020630,4082.798340 1822.792969,4172.590820 
	C1851.682861,4231.854492 1880.657959,4291.076172 1909.544678,4350.340820 
	C1953.602539,4440.731934 1997.587280,4531.157715 2041.660522,4621.540527 
	C2070.266602,4680.204590 2099.019043,4738.796387 2127.627441,4797.458984 
	C2171.710449,4887.852539 2215.697510,4978.292969 2259.781250,5068.686035 
	C2288.680908,5127.945312 2317.728027,5187.132812 2346.620361,5246.395996 
	C2390.395508,5336.186035 2434.070557,5426.025391 2477.831543,5515.822266 
	C2506.714355,5575.088867 2535.652588,5634.328613 2564.603760,5693.562012 
	C2606.715820,5779.723145 2648.638428,5865.978027 2691.074707,5951.979004 
	C2718.209473,6006.970215 2755.192383,6054.769531 2800.402588,6096.065918 
	C2884.384521,6172.777344 2983.486084,6215.875000 3099.321289,6229.151367 
	C3130.131104,6233.202637 3160.896973,6234.115723 3194.979004,6227.523438 
	C3218.056885,6223.641113 3241.134766,6219.758789 3266.918457,6216.348145 
	C3271.164795,6214.892578 3275.411133,6213.437500 3282.617920,6211.263672 
	C3317.990967,6201.352051 3352.032959,6187.937988 3384.374023,6170.609375 
	C3549.803955,6081.969238 3646.795166,5915.737793 3654.885986,5743.299316 
	C3654.810059,5741.980469 3654.734131,5740.661621 3654.770264,5735.835449 
	C3654.698730,5724.135254 3654.627441,5712.435547 3655.142822,5698.773438 
	C3654.552246,5697.592285 3653.961914,5696.411621 3653.229004,5691.658691 
	C3650.248047,5624.141113 3633.200684,5560.159668 3604.020020,5499.412109 
	C3576.908936,5442.973145 3549.169189,5386.836426 3521.692871,5330.572754 
	C3493.339844,5272.513184 3464.934082,5214.478516 3436.616211,5156.401855 
	C3391.953369,5064.802246 3347.362793,4973.167969 3302.706787,4881.564941 
	C3274.687012,4824.088379 3246.576172,4766.655762 3218.554443,4709.180176 
	C3175.354004,4620.571289 3132.228027,4531.927246 3089.007568,4443.328125 
	C3053.085938,4369.691895 3017.023438,4296.124023 2981.114014,4222.481934 
	C2936.446533,4130.877930 2891.908203,4039.210938 2847.244873,3947.604980 
	C2818.639160,3888.933105 2789.864746,3830.343750 2761.245361,3771.678711 
	C2717.148682,3681.286865 2673.126465,3590.858887 2629.060547,3500.452148 
	C2600.458740,3441.772217 2571.831787,3383.104248 2543.224609,3324.426758 
	C2499.731689,3235.216553 2456.268555,3145.991943 2412.751953,3056.792969 
	C2377.119873,2983.755127 2341.384033,2910.768066 2305.774902,2837.718994 
	C2262.580566,2749.110107 2219.510254,2660.440430 2176.312500,2571.833252 
	C2140.119141,2497.593506 2103.791992,2423.419189 2067.574463,2349.191162 
	C2022.884155,2257.598633 1978.259766,2165.974121 1933.580566,2074.376221 
	C1905.254028,2016.303467 1876.848511,1958.269287 1848.533813,1900.190796 
	C1804.166870,1809.185913 1759.867920,1718.147705 1715.499268,1627.143799 
	C1687.184937,1569.068726 1658.764404,1511.045654 1630.448364,1452.971558 
	C1587.245972,1364.366821 1544.126953,1275.721558 1500.907715,1187.125244 
	C1464.985962,1113.488403 1428.925781,1039.919067 1393.008545,966.280029 
	C1348.039185,874.081604 1303.182495,781.828308 1258.221680,689.625732 
	C1223.481567,618.382751 1188.121216,547.436218 1154.033325,475.883087 
	C1125.628662,416.259644 1089.059082,362.742950 1041.041504,317.294769 
	C958.460693,239.132523 860.582520,193.480576 744.783203,178.543365 
	C721.833069,174.063049 698.624268,174.640030 675.445740,175.245819 
	C660.929932,175.625183 646.250854,174.928055 628.836365,180.064316 
	C616.367798,182.064224 603.814270,183.642044 591.443787,186.129608 
	C472.269043,210.094376 373.338135,268.533752 295.992798,362.271118 
	C224.268387,449.196259 186.494370,549.681335 180.287430,662.143433 
	C178.558228,693.474121 180.474625,724.607666 184.171417,758.153748 
z"/>
<path fill="#E34760" opacity="1.000000" stroke="none" 
	d="
M3264.212646,6215.876953 
	C3241.134766,6219.758789 3218.056885,6223.641113 3191.468262,6227.327148 
	C3163.377441,6227.231934 3138.797607,6227.305664 3114.218262,6227.455078 
	C3108.259033,6227.491211 3102.301270,6227.778320 3096.343018,6227.950195 
	C2983.486084,6215.875000 2884.384521,6172.777344 2800.402588,6096.065918 
	C2755.192383,6054.769531 2718.209473,6006.970215 2691.074707,5951.979004 
	C2648.638428,5865.978027 2606.715820,5779.723145 2564.603760,5693.562012 
	C2535.652588,5634.328613 2506.714355,5575.088867 2477.831543,5515.822266 
	C2434.070557,5426.025391 2390.395508,5336.186035 2346.620361,5246.395996 
	C2317.728027,5187.132812 2288.680908,5127.945312 2259.781250,5068.686035 
	C2215.697510,4978.292969 2171.710449,4887.852539 2127.627441,4797.458984 
	C2099.019043,4738.796387 2070.266602,4680.204590 2041.660522,4621.540527 
	C1997.587280,4531.157715 1953.602539,4440.731934 1909.544678,4350.340820 
	C1880.657959,4291.076172 1851.682861,4231.854492 1822.792969,4172.590820 
	C1779.020630,4082.798340 1735.311279,3992.974609 1691.529907,3903.186523 
	C1663.214966,3845.117432 1634.794678,3787.099365 1606.465332,3729.037109 
	C1561.783081,3637.459229 1517.148682,3545.857666 1472.472534,3454.276367 
	C1442.690430,3393.226074 1412.835693,3332.211426 1383.076294,3271.149902 
	C1340.189941,3183.154053 1297.398926,3095.112305 1254.495117,3007.125000 
	C1218.592651,2933.496094 1182.556030,2859.932373 1146.634888,2786.312500 
	C1103.410156,2697.724609 1060.249146,2609.105469 1017.052551,2520.503662 
	C988.450195,2461.836914 959.831970,2403.177979 931.224121,2344.513672 
	C886.566772,2252.937500 841.935364,2161.348633 797.249023,2069.786377 
	C761.029907,1995.573975 724.688782,1921.420776 688.506592,1847.190308 
	C645.318909,1758.587891 602.292114,1669.906860 559.103149,1581.305054 
	C523.208496,1507.667480 487.135620,1434.116577 451.221771,1360.488403 
	C408.013245,1271.905151 364.897552,1183.276611 321.726288,1094.675171 
	C294.306580,1038.401245 267.445587,981.844910 239.251373,925.961487 
	C213.228470,874.381714 194.710510,820.558044 185.669830,761.455322 
	C185.393524,758.139099 184.947876,756.900696 184.502243,755.662231 
	C180.474625,724.607666 178.558228,693.474121 180.287430,662.143433 
	C186.494370,549.681335 224.268387,449.196259 295.992798,362.271118 
	C373.338135,268.533752 472.269043,210.094376 591.443787,186.129608 
	C603.814270,183.642044 616.367798,182.064224 632.317261,180.268585 
	C642.347107,180.208618 648.922791,180.232346 655.440308,179.628204 
	C678.362915,177.503372 701.247986,177.246918 724.191772,179.518158 
	C731.969482,180.288086 739.870544,179.811661 747.715271,179.904785 
	C860.582520,193.480576 958.460693,239.132523 1041.041504,317.294769 
	C1089.059082,362.742950 1125.628662,416.259644 1154.033325,475.883087 
	C1188.121216,547.436218 1223.481567,618.382751 1258.221680,689.625732 
	C1303.182495,781.828308 1348.039185,874.081604 1393.008545,966.280029 
	C1428.925781,1039.919067 1464.985962,1113.488403 1500.907715,1187.125244 
	C1544.126953,1275.721558 1587.245972,1364.366821 1630.448364,1452.971558 
	C1658.764404,1511.045654 1687.184937,1569.068726 1715.499268,1627.143799 
	C1759.867920,1718.147705 1804.166870,1809.185913 1848.533813,1900.190796 
	C1876.848511,1958.269287 1905.254028,2016.303467 1933.580566,2074.376221 
	C1978.259766,2165.974121 2022.884155,2257.598633 2067.574463,2349.191162 
	C2103.791992,2423.419189 2140.119141,2497.593506 2176.312500,2571.833252 
	C2219.510254,2660.440430 2262.580566,2749.110107 2305.774902,2837.718994 
	C2341.384033,2910.768066 2377.119873,2983.755127 2412.751953,3056.792969 
	C2456.268555,3145.991943 2499.731689,3235.216553 2543.224609,3324.426758 
	C2571.831787,3383.104248 2600.458740,3441.772217 2629.060547,3500.452148 
	C2673.126465,3590.858887 2717.148682,3681.286865 2761.245361,3771.678711 
	C2789.864746,3830.343750 2818.639160,3888.933105 2847.244873,3947.604980 
	C2891.908203,4039.210938 2936.446533,4130.877930 2981.114014,4222.481934 
	C3017.023438,4296.124023 3053.085938,4369.691895 3089.007568,4443.328125 
	C3132.228027,4531.927246 3175.354004,4620.571289 3218.554443,4709.180176 
	C3246.576172,4766.655762 3274.687012,4824.088379 3302.706787,4881.564941 
	C3347.362793,4973.167969 3391.953369,5064.802246 3436.616211,5156.401855 
	C3464.934082,5214.478516 3493.339844,5272.513184 3521.692871,5330.572754 
	C3549.169189,5386.836426 3576.908936,5442.973145 3604.020020,5499.412109 
	C3633.200684,5560.159668 3650.248047,5624.141113 3652.994873,5694.426758 
	C3653.359131,5698.374512 3653.957520,5699.555176 3654.556152,5700.735352 
	C3654.627441,5712.435547 3654.698730,5724.135254 3654.062500,5738.358398 
	C3653.397461,5742.187500 3653.440186,5743.492676 3653.483154,5744.798340 
	C3646.795166,5915.737793 3549.803955,6081.969238 3384.374023,6170.609375 
	C3352.032959,6187.937988 3317.990967,6201.352051 3279.787842,6211.409180 
	C3272.709473,6212.995605 3268.460938,6214.436035 3264.212646,6215.876953 
z"/>
<path fill="#46E364" opacity="1.000000" stroke="none" 
	d="
M3775.630615,3968.267822 
	C3713.838379,3962.656738 3655.322510,3945.959717 3601.125488,3915.491943 
	C3557.014648,3890.694580 3513.106689,3865.520020 3469.494385,3839.856934 
	C3397.802979,3797.670898 3341.584473,3740.361084 3302.283691,3666.741943 
	C3264.693359,3596.327148 3247.949951,3521.204834 3251.029541,3441.581055 
	C3253.866943,3368.224365 3274.757324,3300.181885 3311.406250,3236.736328 
	C3463.323975,2973.743408 3615.161621,2710.704590 3767.036377,2447.686768 
	C3930.903076,2163.901855 4094.788818,1880.127686 4258.647461,1596.337891 
	C4409.515625,1335.046021 4560.350098,1073.734741 4711.215820,812.441406 
	C4788.147949,679.198303 4865.178223,546.011780 4942.042480,412.729492 
	C4981.562012,344.202179 5035.548828,290.152832 5103.982422,250.654907 
	C5156.555176,220.311005 5213.018066,201.494812 5277.009277,195.308441 
	C5306.020996,192.974884 5331.569824,191.354355 5357.176270,194.605713 
	C5360.386230,195.013260 5363.691895,194.666992 5366.953125,194.670013 
	C5429.497559,200.938324 5487.888672,220.112320 5542.320801,251.393753 
	C5586.211426,276.616913 5630.610840,301.028412 5673.675293,327.598236 
	C5780.666992,393.610046 5848.203613,488.788971 5874.638672,611.419373 
	C5897.401367,717.014038 5882.013672,818.378235 5829.745117,913.120178 
	C5794.991699,976.113831 5758.258789,1038.016968 5722.284180,1100.334839 
	C5612.360840,1290.752930 5502.363770,1481.129150 5392.416504,1671.534058 
	C5268.145020,1886.744263 5143.885742,2101.961426 5019.642578,2317.187744 
	C4900.392090,2523.766357 4781.188477,2730.372070 4661.927246,2936.944580 
	C4525.010742,3174.096680 4388.069824,3411.235107 4251.096680,3648.354492 
	C4228.768066,3687.009033 4207.377441,3726.268066 4183.549316,3763.981934 
	C4118.051270,3867.648926 4024.525879,3932.419434 3905.170410,3959.678223 
	C3886.424805,3963.959229 3867.024658,3965.372559 3844.311035,3968.004883 
	C3819.006836,3968.020996 3797.318848,3968.144531 3775.630615,3968.267822 
z"/>
<path fill="#732430" opacity="1.000000" stroke="none" 
	d="
M746.249268,179.224075 
	C739.870544,179.811661 731.969482,180.288086 724.191772,179.518158 
	C701.247986,177.246918 678.362915,177.503372 655.440308,179.628204 
	C648.922791,180.232346 642.347107,180.208618 633.983765,180.094742 
	C646.250854,174.928055 660.929932,175.625183 675.445740,175.245819 
	C698.624268,174.640030 721.833069,174.063049 746.249268,179.224075 
z"/>
<path fill="#732430" opacity="1.000000" stroke="none" 
	d="
M3097.832031,6228.550781 
	C3102.301270,6227.778320 3108.259033,6227.491211 3114.218262,6227.455078 
	C3138.797607,6227.305664 3163.377441,6227.231934 3189.759766,6227.494141 
	C3160.896973,6234.115723 3130.131104,6233.202637 3097.832031,6228.550781 
z"/>
<path fill="#304F22" opacity="1.000000" stroke="none" 
	d="
M5365.664062,193.842224 
	C5363.691895,194.666992 5360.386230,195.013260 5357.176270,194.605713 
	C5331.569824,191.354355 5306.020996,192.974884 5278.767090,194.963684 
	C5278.827148,193.851440 5280.556152,192.450317 5282.362305,192.343552 
	C5309.709961,190.727127 5337.067383,189.348251 5365.664062,193.842224 
z"/>
<path fill="#304F22" opacity="1.000000" stroke="none" 
	d="
M3777.176270,3968.918457 
	C3797.318848,3968.144531 3819.006836,3968.020996 3842.597656,3968.164062 
	C3834.004150,3973.179443 3822.742188,3972.412598 3811.756836,3972.274414 
	C3800.735840,3972.135742 3789.732910,3970.531006 3777.176270,3968.918457 
z"/>
<path fill="#732430" opacity="1.000000" stroke="none" 
	d="
M3265.565430,6216.112305 
	C3268.460938,6214.436035 3272.709473,6212.995605 3278.307617,6211.768555 
	C3275.411133,6213.437500 3271.164795,6214.892578 3265.565430,6216.112305 
z"/>
<path fill="#732430" opacity="1.000000" stroke="none" 
	d="
M184.336823,756.907959 
	C184.947876,756.900696 185.393524,758.139099 185.432220,759.947632 
	C184.740646,759.729675 184.456039,758.941711 184.336823,756.907959 
z"/>
<path fill="#732430" opacity="1.000000" stroke="none" 
	d="
M3654.849365,5699.754395 
	C3653.957520,5699.555176 3653.359131,5698.374512 3653.065918,5696.212402 
	C3653.961914,5696.411621 3654.552246,5697.592285 3654.849365,5699.754395 
z"/>
<path fill="#732430" opacity="1.000000" stroke="none" 
	d="
M3654.184570,5744.048828 
	C3653.440186,5743.492676 3653.397461,5742.187500 3654.006348,5740.112305 
	C3654.734131,5740.661621 3654.810059,5741.980469 3654.184570,5744.048828 
z"/>
</svg>