<?xml version="1.0" encoding="UTF-8"?>
<svg version="1.1" xmlns="http://www.w3.org/2000/svg" width="1029" height="1106">
<path d="M0 0 C17.35220977 13.8940509 26.45859045 33.61096847 35.796875 53.296875 C40.88154506 63.97054755 46.051396 74.6003364 51.2593689 85.21429443 C53.76514809 90.32137839 56.26710715 95.43033397 58.76953125 100.5390625 C59.27233109 101.56532745 59.77513092 102.59159241 60.29316711 103.6489563 C65.00064754 113.25938678 69.6908709 122.87817085 74.375 132.5 C75.147783 134.08724127 75.92056946 135.67448085 76.69335938 137.26171875 C77.85165357 139.64075775 79.00994655 142.01979733 80.16818237 144.39886475 C84.66937172 153.64347051 89.1786115 162.88414766 93.6875 172.125 C100.19191155 185.45618679 106.69209235 198.78942392 113.1875 212.125 C122.17473712 230.57619889 131.17202161 249.02248738 140.17138672 267.46777344 C144.7602108 276.87322767 149.34813127 286.27912272 153.93621826 295.68493652 C155.18533781 298.24568959 156.43446337 300.80643972 157.68359375 303.3671875 C158.09589233 304.21240967 158.50819092 305.05763184 158.9329834 305.9284668 C161.44285065 311.07368241 163.9529278 316.21879557 166.46316528 321.36383057 C175.43604245 339.75484798 184.40519097 358.14766848 193.36602783 376.54455566 C199.44840177 389.03163191 205.535009 401.51663687 211.625 414 C212.03894012 414.84850525 212.45288025 415.6970105 212.87936401 416.57122803 C215.81526523 422.58922233 218.75136024 428.60712208 221.6875 434.625 C225.04180026 441.49993483 228.39601389 448.37491191 231.75 455.25 C232.16402069 456.09866638 232.57804138 456.94733276 233.00460815 457.82171631 C239.46291091 471.06047405 245.91573397 484.30189424 252.36602783 497.54455566 C258.44840177 510.03163191 264.535009 522.51663687 270.625 535 C271.03894012 535.84850525 271.45288025 536.6970105 271.87936401 537.57122803 C274.81526523 543.58922233 277.75136024 549.60712208 280.6875 555.625 C284.04180026 562.49993483 287.39601389 569.37491191 290.75 576.25 C291.16402069 577.09866638 291.57804138 577.94733276 292.00460815 578.82171631 C298.46291091 592.06047405 304.91573397 605.30189424 311.36602783 618.54455566 C317.44840177 631.03163191 323.535009 643.51663687 329.625 656 C330.03894012 656.84850525 330.45288025 657.6970105 330.87936401 658.57122803 C333.81526523 664.58922233 336.75136024 670.60712208 339.6875 676.625 C343.04180026 683.49993483 346.39601389 690.37491191 349.75 697.25 C350.16402069 698.09866638 350.57804138 698.94733276 351.00460815 699.82171631 C357.46291091 713.06047405 363.91573397 726.30189424 370.36602783 739.54455566 C376.44840177 752.03163191 382.535009 764.51663687 388.625 777 C389.03894012 777.84850525 389.45288025 778.6970105 389.87936401 779.57122803 C392.81526523 785.58922233 395.75136024 791.60712208 398.6875 797.625 C404.5272054 809.59399232 410.36639176 821.56323733 416.20410156 833.53320312 C417.86984882 836.94869869 419.53588758 840.36405184 421.20214844 843.77929688 C422.03842156 845.49348466 422.87468461 847.20767735 423.7109375 848.921875 C424.12126724 849.76293289 424.53159698 850.60399078 424.95436096 851.47053528 C426.97380862 855.61080863 428.99130806 859.75201192 431.00463867 863.89526367 C431.77522491 865.48095847 432.54581406 867.06665185 433.31640625 868.65234375 C433.68877914 869.4187468 434.06115204 870.18514984 434.44480896 870.97477722 C436.49920014 875.19832989 438.56843935 879.41400338 440.65602112 883.62124634 C454.00919942 910.54230461 462.94544379 937.44872166 453.23046875 967.4609375 C444.70641026 991.27574445 427.81870417 1009.40465651 405.25 1020.4375 C384.07375265 1029.50407109 359.13323925 1030.82759668 337.44775391 1022.79541016 C327.43754549 1018.77082211 318.9982655 1013.50735268 310.6875 1006.625 C310.048125 1006.14804688 309.40875 1005.67109375 308.75 1005.1796875 C294.46578777 994.13587526 287.17184256 975.90605827 279.66015625 960.1015625 C274.23631206 948.72719111 268.70618112 937.40686339 263.1468811 926.09820557 C260.39848011 920.50696154 257.654242 914.91367535 254.91015625 909.3203125 C254.36882553 908.21698578 253.82749481 907.11365906 253.26976013 905.97689819 C248.82414455 896.9120669 244.40375833 887.83522626 240 878.75 C233.63087969 865.61188329 227.22869519 852.4901918 220.8125 839.375 C213.88480638 825.21368705 206.96442581 811.04889125 200.0625 796.875 C199.48485397 795.68877045 199.48485397 795.68877045 198.89553833 794.47857666 C198.5105014 793.68787781 198.12546448 792.89717896 197.72875977 792.08251953 C196.95068681 790.48469895 196.17261064 788.88687994 195.39453125 787.2890625 C195.00959 786.49855499 194.62464874 785.70804749 194.2280426 784.89358521 C189.73954877 775.67701466 185.24493425 766.46343081 180.75 757.25 C180.3358786 756.4011322 179.9217572 755.5522644 179.49508667 754.67767334 C176.55936777 748.66004563 173.62346023 742.64250997 170.6875 736.625 C167.33319974 729.75006517 163.97898611 722.87508809 160.625 716 C160.21097931 715.15133362 159.79695862 714.30266724 159.37039185 713.42828369 C152.91208909 700.18952595 146.45926603 686.94810576 140.00897217 673.70544434 C131.41440428 656.06084939 122.80960715 638.42125075 114.20361328 620.78222656 C110.44749154 613.08351541 106.69201676 605.38448867 102.93649292 597.68548584 C100.85352176 593.41531098 98.77050876 589.14515652 96.6875 584.875 C95.85416647 583.16666676 95.02083313 581.45833343 94.1875 579.75 C93.775 578.904375 93.3625 578.05875 92.9375 577.1875 C51.6875 492.625 10.4375 408.0625 -32.06248474 320.93753052 C-32.89586814 319.22909507 -33.72925233 317.52066001 -34.56263733 315.81222534 C-36.6452113 311.54295759 -38.72777137 307.27368306 -40.81030273 303.00439453 C-44.56935028 295.2982024 -48.328499 287.59205972 -52.08816528 279.88616943 C-61.06104245 261.49515202 -70.03019097 243.10233152 -78.99102783 224.70544434 C-84.65652878 213.07420578 -90.32538981 201.44461198 -95.99786377 189.81677246 C-97.24525312 187.25973069 -98.49250834 184.70262353 -99.73974609 182.14550781 C-104.49022181 172.4066027 -109.24466482 162.66964611 -114.00198364 152.93408203 C-117.37085984 146.03840993 -120.73300899 139.13948145 -124.09054565 132.23828125 C-126.25447993 127.79174326 -128.42947703 123.3508882 -130.61328125 118.9140625 C-143.48638095 92.6078674 -148.6373093 66.63343029 -139 38.25 C-134.94976819 27.7145756 -129.57390985 19.22013818 -122.3125 10.625 C-121.86648437 10.02171875 -121.42046875 9.4184375 -120.9609375 8.796875 C-108.58926965 -7.44568279 -86.09684147 -15.7986657 -66.72265625 -18.9609375 C-42.55024823 -21.8959607 -19.11365618 -14.80606584 0 0 Z " fill="#FFFFFF" transform="translate(173.3125,48.375)"/>
<path d="M0 0 C16.94181442 14.38455941 29.15635117 35.88320231 31.09375 58.30859375 C31.14015625 59.42427734 31.14015625 59.42427734 31.1875 60.5625 C31.26484375 62.28146484 31.26484375 62.28146484 31.34375 64.03515625 C32.04033804 87.22981076 23.2116706 106.03897919 12.9375 126.3125 C12.07664134 128.02228761 11.21612976 129.73225001 10.35595703 131.44238281 C5.98173843 140.12344276 1.56132213 148.77613543 -3.02636719 157.34667969 C-7.67826949 166.08746435 -12.03552743 174.97894526 -16.44732666 183.84240723 C-20.84077557 192.66545924 -25.27786305 201.4521088 -29.92578125 210.14453125 C-34.20743018 218.20663274 -38.24512572 226.39098223 -42.3125 234.5625 C-47.08279088 244.14620534 -51.87751825 253.70339377 -56.92578125 263.14453125 C-61.20743018 271.20663274 -65.24512572 279.39098223 -69.3125 287.5625 C-74.08279088 297.14620534 -78.87751825 306.70339377 -83.92578125 316.14453125 C-88.20743018 324.20663274 -92.24512572 332.39098223 -96.3125 340.5625 C-101.08279088 350.14620534 -105.87751825 359.70339377 -110.92578125 369.14453125 C-115.20743025 377.20663287 -119.24512213 385.39098392 -123.3125 393.5625 C-132.3191818 411.65721208 -132.3191818 411.65721208 -136.75 419.9375 C-141.62562467 429.05130017 -146.20621584 438.31075903 -150.8125 447.5625 C-155.76663133 457.51289346 -160.73183987 467.44478586 -165.9765625 477.24609375 C-170.64137208 486.02226092 -175.01862191 494.94497426 -179.447052 503.84185791 C-183.84059262 512.66509312 -188.27776646 521.45192816 -192.92578125 530.14453125 C-197.20745658 538.20668246 -201.24396096 546.3915156 -205.3125 554.5625 C-238.20663454 620.56239592 -238.20663454 620.56239592 -274.484375 633.53125 C-297.70941429 640.72774105 -322.86011494 638.98678763 -344.5625 627.66015625 C-365.9715808 615.84607412 -381.37152808 596.39358409 -388.25 572.9375 C-395.80065575 544.42784913 -387.45497928 519.14838316 -374.5625 493.8125 C-373.89213629 492.48374299 -373.2221383 491.15480141 -372.55249023 489.82568359 C-368.69551641 482.18737317 -364.75911275 474.59367206 -360.73144531 467.04394531 C-356.61663981 459.28795682 -352.72357389 451.42245333 -348.8125 443.5625 C-344.58149523 435.05964878 -340.35204363 426.56440741 -335.875 418.1875 C-331.1794283 409.39960712 -326.75191363 400.48150511 -322.3125 391.5625 C-317.51891457 381.93194593 -312.69993939 372.32815315 -307.62890625 362.83984375 C-303.54582951 355.15324627 -299.68966625 347.35423927 -295.8125 339.5625 C-291.58148678 331.05965289 -287.35204378 322.5644077 -282.875 314.1875 C-278.1794283 305.39960712 -273.75191363 296.48150511 -269.3125 287.5625 C-264.51891457 277.93194593 -259.69993939 268.32815315 -254.62890625 258.83984375 C-250.17330098 250.45194255 -245.98158319 241.93127058 -241.7507019 233.4286499 C-237.49354904 224.87693055 -233.18022501 216.36827476 -228.6796875 207.94140625 C-224.5814854 200.21995924 -220.70652898 192.38816304 -216.8125 184.5625 C-212.58149101 176.05965084 -208.3520437 167.56440755 -203.875 159.1875 C-199.1794283 150.39960712 -194.75191363 141.48150511 -190.3125 132.5625 C-185.51891457 122.93194593 -180.69993939 113.32815315 -175.62890625 103.83984375 C-171.1754141 95.4559206 -166.98552633 86.93937032 -162.75674438 78.44073486 C-158.36025343 69.60885162 -153.91218111 60.81507627 -149.26220703 52.11303711 C-146.73552399 47.37055684 -144.33283211 42.57960148 -141.97460938 37.7512207 C-129.17297989 11.63074871 -112.64581328 -6.02780562 -85.1875 -16.75 C-55.79943917 -26.67379445 -23.82695092 -18.73516415 0 0 Z " fill="#FFFFFF" transform="translate(967.8125,50.4375)"/>
</svg>
