<svg width="94" height="20" viewBox="0 0 94 20" fill="none" xmlns="http://www.w3.org/2000/svg">
<path d="M8.664 14.44L13.944 1.264H17.016L9.552 19H7.704L0.168 1.264H3.336L8.664 14.44ZM20.3226 4.36C19.2906 4.36 18.4986 3.592 18.4986 2.56C18.4986 1.576 19.2906 0.808 20.3226 0.808C21.3066 0.808 22.0746 1.576 22.0746 2.56C22.0746 3.592 21.3066 4.36 20.3226 4.36ZM21.5946 6.064V19H18.9546V6.064H21.5946ZM32.0089 5.752C33.8569 5.752 35.3929 6.4 36.6169 7.72C37.8409 9.04 38.4649 10.648 38.4649 12.544C38.4649 14.44 37.8409 16.048 36.6169 17.368C35.3929 18.664 33.8329 19.312 31.9849 19.312C30.2089 19.312 28.7449 18.592 27.6169 17.152V19H25.0009V0.808H27.6409V7.936C28.7929 6.472 30.2569 5.752 32.0089 5.752ZM31.6489 16.84C32.8729 16.84 33.8569 16.432 34.6009 15.592C35.3689 14.752 35.7529 13.744 35.7529 12.52C35.7529 11.296 35.3689 10.288 34.6009 9.448C33.8569 8.608 32.8729 8.2 31.6489 8.2C30.4249 8.2 29.4169 8.632 28.6489 9.472C27.9049 10.312 27.5209 11.32 27.5209 12.52C27.5209 13.744 27.9049 14.752 28.6489 15.592C29.4169 16.432 30.4249 16.84 31.6489 16.84ZM44.8956 19.312C42.9036 19.312 41.0076 18.4 39.9276 16.6L41.6316 15.064C42.4236 16.336 43.7196 17.032 44.9436 17.032C46.1916 17.032 47.0796 16.312 47.0796 15.424C47.0796 14.8 46.7196 14.296 45.9756 13.936C45.7596 13.816 45.2316 13.6 44.4156 13.288C43.6236 12.952 43.0716 12.712 42.7836 12.544C41.4156 11.824 40.7196 10.768 40.7196 9.352C40.7196 8.272 41.1276 7.384 41.9196 6.688C42.7356 5.992 43.8156 5.632 45.1356 5.632C46.9836 5.632 48.3996 6.304 49.3836 7.624L47.8476 9.256C47.0796 8.32 46.1436 7.84 45.0156 7.84C43.9356 7.84 43.2876 8.464 43.2876 9.256C43.2876 9.88 43.6476 10.36 44.3676 10.672L45.6876 11.224C46.5036 11.56 47.1036 11.824 47.5116 12.04C48.9756 12.808 49.7196 13.888 49.7196 15.304C49.7196 16.432 49.2636 17.392 48.3756 18.16C47.4876 18.928 46.3116 19.312 44.8956 19.312ZM64.4507 12.28C64.4507 12.64 64.4267 13.072 64.3547 13.552H54.2507C54.6347 15.568 56.0507 16.936 58.5467 16.936C60.0107 16.936 61.7867 16.384 62.9387 15.544L64.0427 17.488C62.7227 18.472 60.6347 19.288 58.4507 19.288C53.6027 19.288 51.5147 15.904 51.5147 12.496C51.5147 10.552 52.1147 8.944 53.3387 7.672C54.5627 6.4 56.1707 5.752 58.1147 5.752C59.9627 5.752 61.4987 6.328 62.6747 7.504C63.8507 8.68 64.4507 10.264 64.4507 12.28ZM58.1147 8.032C56.1227 8.032 54.6347 9.376 54.2507 11.392H61.7867C61.5707 9.352 60.0587 8.032 58.1147 8.032ZM79.2398 12.28C79.2398 12.64 79.2158 13.072 79.1438 13.552H69.0398C69.4238 15.568 70.8398 16.936 73.3358 16.936C74.7998 16.936 76.5758 16.384 77.7278 15.544L78.8318 17.488C77.5118 18.472 75.4238 19.288 73.2398 19.288C68.3918 19.288 66.3038 15.904 66.3038 12.496C66.3038 10.552 66.9038 8.944 68.1278 7.672C69.3518 6.4 70.9598 5.752 72.9038 5.752C74.7518 5.752 76.2878 6.328 77.4637 7.504C78.6398 8.68 79.2398 10.264 79.2398 12.28ZM72.9038 8.032C70.9118 8.032 69.4238 9.376 69.0398 11.392H76.5758C76.3598 9.352 74.8478 8.032 72.9038 8.032ZM84.4768 19H81.8368V6.064H84.4288V7.888C85.1968 6.544 86.6848 5.728 88.5328 5.728C89.9488 5.728 91.1488 6.184 92.1328 7.12C93.1168 8.056 93.6208 9.376 93.6208 11.128V19H90.9568V11.872C90.9568 9.496 89.7088 8.176 87.8608 8.176C85.8688 8.176 84.4768 9.712 84.4768 11.92V19Z" fill="white"/>
</svg>
